<svg preserveAspectRatio="xMidYMid meet" width="22" height="20" overflow="visible" style="display: block;" viewBox="0 0 22 20" fill="none" xmlns="http://www.w3.org/2000/svg">
<path id="Vector" d="M0.040008 15.52C0.106688 15.4134 0.213333 15.4066 0.359987 15.5C3.69331 17.4333 7.31997 18.4 11.24 18.4C13.8533 18.4 16.4333 17.9133 18.98 16.94C19.0467 16.9133 19.1433 16.8733 19.27 16.82C19.3967 16.7667 19.4866 16.7267 19.54 16.7C19.74 16.62 19.8967 16.66 20.01 16.82C20.1233 16.98 20.0866 17.1266 19.9 17.26C19.66 17.4333 19.3533 17.6333 18.98 17.86C17.8333 18.54 16.5533 19.0667 15.14 19.44C13.7266 19.8133 12.3466 20 10.9999 20C8.91995 20 6.95328 19.6367 5.09996 18.91C3.24664 18.1834 1.5866 17.16 0.119939 15.84C0.040008 15.7733 0 15.7067 0 15.64C0 15.6 0.013336 15.56 0.040008 15.52ZM6.05998 9.82001C6.05998 8.89999 6.28665 8.11334 6.73999 7.46C7.19332 6.80667 7.81332 6.31336 8.59997 5.98C9.31999 5.67336 10.2066 5.45336 11.26 5.32C11.6199 5.27999 12.2066 5.22665 13.02 5.16001V4.82003C13.02 3.96669 12.9266 3.39337 12.74 3.10002C12.4599 2.70003 12.0199 2.50003 11.4199 2.50003H11.26C10.82 2.54004 10.44 2.68003 10.1199 2.92003C9.79996 3.16004 9.59325 3.49335 9.49994 3.92002C9.4466 4.1867 9.31328 4.34002 9.09995 4.38003L6.79996 4.10001C6.57329 4.04667 6.45997 3.92669 6.45997 3.74002C6.45997 3.70002 6.46664 3.65338 6.47998 3.60004C6.70665 2.41339 7.26332 1.53338 8.14999 0.960022C9.03666 0.386659 10.0733 0.06668 11.26 0H11.76C13.28 0 14.4667 0.393327 15.32 1.17998C15.4538 1.31394 15.5775 1.45766 15.69 1.60996C15.8033 1.76328 15.8933 1.89995 15.96 2.01998C16.0267 2.13996 16.0866 2.31333 16.14 2.54C16.1933 2.76667 16.2333 2.92334 16.26 3.00999C16.2866 3.09663 16.3067 3.28333 16.32 3.56997C16.3333 3.85661 16.34 4.02662 16.34 4.07997V8.91995C16.34 9.26661 16.39 9.58331 16.49 9.86995C16.59 10.1566 16.6866 10.3633 16.78 10.4899C16.8733 10.6166 17.0267 10.82 17.24 11.1C17.32 11.2199 17.36 11.3266 17.36 11.4199C17.36 11.5266 17.3066 11.6199 17.2 11.7C16.0933 12.6599 15.4933 13.18 15.4 13.26C15.24 13.38 15.0467 13.3933 14.82 13.3C14.6333 13.14 14.47 12.9866 14.33 12.84C14.19 12.6933 14.09 12.5866 14.03 12.52C13.97 12.4534 13.8733 12.3234 13.74 12.13C13.6066 11.9367 13.5133 11.8066 13.46 11.74C12.7133 12.5533 11.98 13.06 11.26 13.26C10.8066 13.3933 10.2466 13.46 9.57996 13.46C8.5533 13.46 7.70995 13.1433 7.04994 12.51C6.38998 11.8766 6.05998 10.98 6.05998 9.82001ZM9.49998 9.42001C9.49998 9.94003 9.62999 10.3567 9.89 10.67C10.15 10.9834 10.5 11.14 10.94 11.14C10.98 11.14 11.0367 11.1333 11.11 11.12C11.1833 11.1067 11.2334 11.1 11.26 11.1C11.82 10.9534 12.2534 10.5934 12.56 10.02C12.7067 9.76666 12.8167 9.49 12.89 9.18999C12.9634 8.88997 13.0034 8.64665 13.01 8.45999C13.0167 8.27333 13.02 7.96664 13.02 7.53998V7.03996C12.2466 7.03996 11.66 7.09331 11.26 7.19995C10.0866 7.53335 9.49998 8.27333 9.49998 9.42001ZM17.9 15.86C17.9267 15.8066 17.9667 15.7533 18.02 15.7C18.3533 15.4733 18.6733 15.32 18.98 15.24C19.4866 15.1066 19.98 15.0333 20.46 15.02C20.5933 15.0066 20.72 15.0133 20.84 15.04C21.4399 15.0933 21.7999 15.1933 21.92 15.34C21.9733 15.42 22 15.54 22 15.7V15.84C22 16.3067 21.8733 16.8567 21.62 17.49C21.3666 18.1233 21.0133 18.6333 20.56 19.02C20.4933 19.0733 20.4333 19.1 20.38 19.1C20.3533 19.1 20.3266 19.0933 20.3 19.08C20.22 19.04 20.2 18.9666 20.24 18.86C20.7333 17.7 20.98 16.8933 20.98 16.44C20.98 16.2933 20.9533 16.1866 20.9 16.12C20.7666 15.96 20.3933 15.88 19.78 15.88C19.5533 15.88 19.2866 15.8933 18.98 15.92C18.6466 15.96 18.34 16 18.06 16.04C17.9799 16.04 17.9266 16.0266 17.9 16C17.8733 15.9733 17.8666 15.9466 17.88 15.92C17.88 15.9067 17.8867 15.8867 17.9 15.86Z" fill="var(--fill-0, #0E0E0E)"/>
</svg>
