<svg preserveAspectRatio="xMidYMid meet" width="16.0006" height="16.0003" overflow="visible" style="display: block;" viewBox="0 0 16.0006 16.0003" fill="none" xmlns="http://www.w3.org/2000/svg">
<g id="Vector">
<path d="M8 1.44141C10.1362 1.44141 10.389 1.44966 11.2328 1.48809C12.0127 1.52366 12.4363 1.65386 12.7183 1.76341C13.0918 1.90854 13.3582 2.08193 13.6383 2.3617C13.9184 2.64179 14.0918 2.90822 14.2366 3.28167C14.3461 3.56366 14.4763 3.98729 14.5119 4.76722C14.5503 5.61066 14.5586 5.86376 14.5586 7.99999C14.5586 10.1362 14.5503 10.389 14.5119 11.2328C14.4763 12.0127 14.3461 12.4363 14.2366 12.7183C14.0915 13.0918 13.9181 13.3582 13.6383 13.6383C13.3582 13.9184 13.0918 14.0917 12.7183 14.2366C12.4363 14.3461 12.0127 14.4763 11.2328 14.5119C10.3893 14.5503 10.1362 14.5586 8 14.5586C5.86377 14.5586 5.61067 14.5503 4.76723 14.5119C3.9873 14.4763 3.56367 14.3461 3.28168 14.2366C2.90822 14.0914 2.64179 13.918 2.3617 13.6383C2.08161 13.3582 1.90822 13.0918 1.76342 12.7183C1.65386 12.4363 1.52366 12.0127 1.48809 11.2328C1.44967 10.3893 1.44141 10.1362 1.44141 7.99999C1.44141 5.86376 1.44967 5.61098 1.48809 4.76722C1.52366 3.98729 1.65386 3.56366 1.76342 3.28167C1.90854 2.90822 2.08193 2.64179 2.3617 2.3617C2.64179 2.08161 2.90822 1.90822 3.28168 1.76341C3.56367 1.65386 3.9873 1.52366 4.76723 1.48809C5.61099 1.44966 5.86377 1.44141 8 1.44141ZM8 0C5.82725 0 5.55478 0.00920925 4.70149 0.0482692C3.85011 0.0870116 3.26866 0.222292 2.75961 0.420133C2.23341 0.624642 1.78723 0.898061 1.34265 1.34296C0.898063 1.78755 0.624325 2.23372 0.420133 2.7596C0.222293 3.26865 0.0870118 3.8501 0.0482693 4.70148C0.00920927 5.55477 0 5.82724 0 7.99999C0 10.1727 0.00920927 10.4452 0.0482693 11.2985C0.0870118 12.1499 0.222293 12.7313 0.420133 13.2404C0.624643 13.7666 0.898063 14.2127 1.34297 14.6573C1.78787 15.1022 2.23373 15.3756 2.75992 15.5802C3.26866 15.778 3.85043 15.9133 4.70181 15.952C5.5551 15.9911 5.82756 16.0003 8.00032 16.0003C10.1731 16.0003 10.4455 15.9911 11.2988 15.952C12.1502 15.9133 12.732 15.778 13.2407 15.5802C13.7669 15.3756 14.2131 15.1022 14.6577 14.6573C15.1026 14.2124 15.376 13.7666 15.5805 13.2404C15.7783 12.7316 15.9136 12.1499 15.9524 11.2985C15.9914 10.4452 16.0006 10.1727 16.0006 7.99999C16.0006 5.82724 15.9914 5.55477 15.9524 4.70148C15.9136 3.8501 15.7783 3.26833 15.5805 2.7596C15.376 2.2334 15.1026 1.78723 14.6577 1.34265C14.2128 0.897744 13.7669 0.624324 13.2407 0.419815C12.7313 0.222292 12.1499 0.0870116 11.2985 0.0482692C10.4452 0.00920925 10.1728 0 8 0Z" fill="#0E0E0E"/>
<path d="M8 3.89197C5.73103 3.89197 3.89203 5.73128 3.89203 7.99994C3.89203 10.2686 5.73134 12.1079 8 12.1079C10.2687 12.1079 12.108 10.2686 12.108 7.99994C12.108 5.73128 10.269 3.89197 8 3.89197ZM8 10.6665C6.52715 10.6665 5.33344 9.47247 5.33344 7.99994C5.33344 6.52709 6.52747 5.33338 8 5.33338C9.47253 5.33338 10.6666 6.52741 10.6666 7.99994C10.6666 9.47279 9.47285 10.6665 8 10.6665Z" fill="#0E0E0E"/>
<path d="M12.2705 4.68945C12.8007 4.68945 13.2305 4.25966 13.2305 3.72947C13.2305 3.19929 12.8007 2.76949 12.2705 2.76949C11.7403 2.76949 11.3105 3.19929 11.3105 3.72947C11.3105 4.25966 11.7403 4.68945 12.2705 4.68945Z" fill="#0E0E0E"/>
</g>
</svg>
