<svg preserveAspectRatio="xMidYMid meet" width="16" height="20" overflow="visible" style="display: block;" viewBox="0 0 16 20" fill="none" xmlns="http://www.w3.org/2000/svg">
<g id="Vector">
<path d="M10 8C10 9.10457 9.10457 10 8 10C6.89543 10 6 9.10457 6 8C6 6.89543 6.89543 6 8 6C9.10457 6 10 6.89543 10 8Z" fill="var(--fill-0, #0E0E0E)"/>
<path fill-rule="evenodd" clip-rule="evenodd" d="M8.91421 20H7.08579C6.62452 19.5387 6.17533 19.0674 5.73981 18.5816C5.11635 17.8862 4.28298 16.9088 3.44726 15.7838C2.61384 14.6619 1.76348 13.3737 1.11784 12.0576C0.479169 10.7557 0 9.34525 0 8C0 2.8559 4.04423 0 8 0C11.9558 0 16 2.8559 16 8C16 9.34525 15.5208 10.7557 14.8822 12.0576C14.2365 13.3737 13.3862 14.6619 12.5527 15.7838C11.717 16.9088 10.8837 17.8862 10.2602 18.5816C9.82461 19.0675 9.37478 19.538 8.91421 20ZM2 8C2 4.1441 4.95577 2 8 2C11.0442 2 14 4.1441 14 8C14 8.90475 13.6667 9.99428 13.0866 11.1768C12.5135 12.345 11.7388 13.5256 10.9473 14.5912C10.158 15.6537 9.36635 16.5825 8.77106 17.2465C8.48583 17.5646 8.24685 17.8207 8.07635 18H7.92365C7.75315 17.8207 7.51417 17.5646 7.22894 17.2465C6.63365 16.5825 5.84202 15.6537 5.05274 14.5912C4.26116 13.5256 3.48652 12.345 2.91341 11.1768C2.33333 9.99429 2 8.90475 2 8Z" fill="var(--fill-0, #0E0E0E)"/>
</g>
</svg>
