<svg preserveAspectRatio="xMidYMid meet" width="22" height="16" overflow="visible" style="display: block;" viewBox="0 0 22 16" fill="none" xmlns="http://www.w3.org/2000/svg">
<path id="Vector" d="M14.0168 0C9.59664 0 6.03361 3.58737 6.03361 8C6.03361 12.4126 9.61345 16 14.0168 16C18.4202 16 22 12.4126 22 8C21.9832 3.58737 18.4202 0 14.0168 0ZM14.0168 10.0042C12.9076 10.0042 12.0168 9.11158 12.0168 8C12.0168 6.88842 12.9076 5.99579 14.0168 5.99579C15.1261 5.99579 16.0168 6.88842 16.0168 8C16 9.11158 15.1092 10.0042 14.0168 10.0042ZM0 8C0 6.88842 0.890756 5.99579 2 5.99579C3.10924 5.99579 4 6.88842 4 8C4 9.11158 3.10924 10.0042 2 10.0042C0.890756 10.0042 0 9.11158 0 8Z" fill="var(--fill-0, #0E0E0E)"/>
</svg>
