<svg preserveAspectRatio="xMidYMid meet" width="17.5" height="17.5" overflow="visible" style="display: block;" viewBox="0 0 17.5 17.5" fill="none" xmlns="http://www.w3.org/2000/svg">
<g id="Vector">
<path d="M1 3C8.45584 3 14.5 9.04416 14.5 16.5H17.5C17.5 7.3873 10.1127 0 1 0V3Z" fill="var(--fill-0, #0E0E0E)"/>
<path d="M8.5 16.5C8.5 12.3579 5.14214 9 1 9V6C6.79899 6 11.5 10.701 11.5 16.5H8.5Z" fill="var(--fill-0, #0E0E0E)"/>
<path d="M5 15C5 16.3807 3.88071 17.5 2.5 17.5C1.11929 17.5 0 16.3807 0 15C0 13.6193 1.11929 12.5 2.5 12.5C3.88071 12.5 5 13.6193 5 15Z" fill="var(--fill-0, #0E0E0E)"/>
</g>
</svg>
