<svg preserveAspectRatio="xMidYMid meet" width="20" height="19" overflow="visible" style="display: block;" viewBox="0 0 20 19" fill="none" xmlns="http://www.w3.org/2000/svg">
<path id="Union" d="M6.5 6C7.30867 6 8.08268 6.14812 8.79688 6.41797L7.77734 8.18457C7.37236 8.06488 6.94378 8 6.5 8C4.01472 8 2 10.0147 2 12.5C2 14.9853 4.01472 17 6.5 17C8.81624 17 10.7229 15.2499 10.9717 13H5L12.501 0L20 13H12.9785C12.7231 16.3561 9.92155 19 6.5 19C2.91015 19 2.57711e-07 16.0899 0 12.5C0 8.91015 2.91015 6 6.5 6ZM8.46289 11H16.5371L12.501 4.00195L8.46289 11Z" fill="var(--fill-0, #0E0E0E)"/>
</svg>
