<svg preserveAspectRatio="xMidYMid meet" width="17" height="19" overflow="visible" style="display: block;" viewBox="0 0 17 19" fill="none" xmlns="http://www.w3.org/2000/svg">
<path id="Vector" fill-rule="evenodd" clip-rule="evenodd" d="M7 3.5C7 3.79984 6.9623 4.09088 6.89137 4.36863L11.1384 6.91682C11.7609 6.3474 12.5899 6 13.5 6C15.433 6 17 7.567 17 9.5C17 11.433 15.433 13 13.5 13C12.5899 13 11.7609 12.6526 11.1384 12.0832L6.89137 14.6314C6.9623 14.9091 7 15.2002 7 15.5C7 17.433 5.433 19 3.5 19C1.567 19 0 17.433 0 15.5C0 13.9145 1.05426 12.5752 2.5 12.1449V6.85506C1.05426 6.42479 0 5.08551 0 3.5C0 1.567 1.567 0 3.5 0C5.433 0 7 1.567 7 3.5ZM2 3.5C2 3.05575 2.19313 2.65661 2.5 2.38195C2.65843 2.24015 2.84718 2.13153 3.05533 2.06701C3.19583 2.02346 3.34518 2 3.5 2C4.23201 2 4.84154 2.52434 4.97352 3.21792C4.9909 3.30928 5 3.40358 5 3.5C5 4.32843 4.32843 5 3.5 5C3.11582 5 2.76538 4.85557 2.5 4.61805C2.19313 4.34339 2 3.94425 2 3.5ZM13.5 11C13.3452 11 13.1958 10.9765 13.0553 10.933C12.444 10.7435 12 10.1736 12 9.5C12 8.8264 12.444 8.25649 13.0553 8.06701C13.1958 8.02346 13.3452 8 13.5 8C14.232 8 14.8415 8.52434 14.9735 9.21792C14.9909 9.30928 15 9.40358 15 9.5C15 9.59642 14.9909 9.69072 14.9735 9.78208C14.8415 10.4757 14.232 11 13.5 11ZM5.86164 6.08318L10.1086 8.63137C10.0377 8.90912 10 9.20016 10 9.5C10 9.79984 10.0377 10.0909 10.1086 10.3686L5.86164 12.9168C5.47681 12.5648 5.01306 12.2976 4.5 12.1449V6.85506C5.01306 6.70237 5.47681 6.4352 5.86164 6.08318ZM2.5 14.3819C2.19313 14.6566 2 15.0557 2 15.5C2 15.9442 2.19313 16.3434 2.5 16.6181C2.65843 16.7599 2.84718 16.8685 3.05533 16.933C3.19584 16.9765 3.34518 17 3.5 17C4.23201 17 4.84154 16.4757 4.97352 15.7821C4.9909 15.6907 5 15.5964 5 15.5C5 14.6716 4.32843 14 3.5 14C3.11582 14 2.76538 14.1444 2.5 14.3819Z" fill="var(--fill-0, #0E0E0E)"/>
</svg>
