<svg preserveAspectRatio="xMidYMid meet" width="22" height="9.55" overflow="visible" style="display: block;" viewBox="0 0 22 9.55" fill="none" xmlns="http://www.w3.org/2000/svg">
<g id="Vector">
<path d="M1.06325 4.95505C1.01605 4.95505 0.978787 4.9923 0.971334 5.04446L0.75521 7.01905L0.971334 8.95142C0.978787 9.00358 1.01605 9.04083 1.06325 9.04083C1.11045 9.04083 1.14771 9.00358 1.15516 8.95142L1.4011 7.01905L1.15516 5.04446C1.14771 4.9923 1.11045 4.95505 1.06325 4.95505Z" fill="#0E0E0E"/>
<path d="M0.250903 5.71264C0.206188 5.71264 0.168925 5.74742 0.161473 5.79958L0 7.02159L0.161473 8.22124C0.168925 8.27092 0.203704 8.30569 0.250903 8.30569C0.295619 8.30569 0.332882 8.27092 0.33785 8.22124L0.529133 7.0191L0.33785 5.79709C0.332882 5.74742 0.295619 5.71264 0.250903 5.71264Z" fill="#0E0E0E"/>
<path d="M1.93021 4.56759C1.87308 4.56759 1.82588 4.6123 1.82091 4.67688L1.61472 7.01906L1.82091 9.2768C1.82588 9.3389 1.87308 9.38609 1.93021 9.38609C1.98735 9.38609 2.03455 9.34138 2.03952 9.27929L2.27303 7.02155L2.03952 4.67936C2.03206 4.6123 1.98735 4.56759 1.93021 4.56759Z" fill="#0E0E0E"/>
<path d="M2.79969 4.4857C2.73262 4.4857 2.67548 4.54034 2.67051 4.61237L2.47675 7.01913L2.67051 9.3489C2.67548 9.42093 2.73262 9.47557 2.79969 9.47557C2.86677 9.47557 2.92142 9.42093 2.92887 9.3489L3.14996 7.01913L2.92887 4.60988C2.92142 4.54034 2.86677 4.4857 2.79969 4.4857Z" fill="#0E0E0E"/>
<path d="M3.82564 4.78616C3.82067 4.7042 3.75609 4.6421 3.67908 4.6421C3.59958 4.6421 3.53499 4.7042 3.53002 4.78864L3.34619 7.02154L3.53002 9.3687C3.53499 9.45066 3.59958 9.51524 3.67908 9.51524C3.75857 9.51524 3.82067 9.45315 3.82564 9.3687L4.03431 7.02154L3.82564 4.78616Z" fill="#0E0E0E"/>
<path d="M4.56346 3.22143C4.47403 3.22143 4.40199 3.29346 4.39702 3.38535L4.22561 7.0191L4.39702 9.36625C4.40199 9.45815 4.47403 9.53018 4.56346 9.53018C4.65041 9.53018 4.72493 9.45815 4.7299 9.36625L4.92367 7.0191L4.7299 3.38535C4.72493 3.29346 4.65041 3.22143 4.56346 3.22143Z" fill="#0E0E0E"/>
<path d="M5.44288 2.38435C5.34351 2.38435 5.26153 2.46383 5.25656 2.56815L5.09509 7.03395L5.25656 9.3662C5.26153 9.46804 5.34102 9.55 5.44288 9.55C5.54224 9.55 5.62422 9.47052 5.62919 9.3662L5.81054 7.03147L5.62919 2.56567C5.62174 2.46632 5.53976 2.38435 5.44288 2.38435Z" fill="#0E0E0E"/>
<path d="M6.35455 1.98199C6.24276 1.98199 6.15333 2.07141 6.15085 2.18566L6.0018 7.02403L6.15085 9.33392C6.15333 9.44569 6.24276 9.53511 6.35455 9.53511C6.46386 9.53511 6.55329 9.44569 6.55826 9.33392V9.33641L6.72718 7.02651L6.55826 2.18814C6.55329 2.07141 6.46386 1.98199 6.35455 1.98199Z" fill="#0E0E0E"/>
<path d="M7.48487 2.0218C7.4799 1.89762 7.38302 1.80075 7.26129 1.80075C7.13957 1.80075 7.04269 1.89762 7.03772 2.0218L6.8986 7.02161L7.03772 9.31661C7.04269 9.43831 7.13957 9.53766 7.26129 9.53766C7.38302 9.53766 7.4799 9.4408 7.48487 9.31661L7.64138 7.02161L7.48487 2.0218Z" fill="#0E0E0E"/>
<path d="M8.17549 1.91003C8.04383 1.91003 7.93701 2.01435 7.93452 2.15096L7.80783 7.0241L7.93452 9.29674C7.93701 9.43086 8.04383 9.53518 8.17549 9.53518C8.30715 9.53518 8.41397 9.42838 8.41646 9.29425V9.29674L8.56054 7.02161L8.41646 2.14847C8.41149 2.01435 8.30715 1.91003 8.17549 1.91003Z" fill="#0E0E0E"/>
<path d="M9.0971 2.06899C8.95302 2.06899 8.83875 2.18324 8.83626 2.3273L8.71951 7.02161L8.83626 9.27935C8.83875 9.4234 8.95302 9.53766 9.0971 9.53766C9.2387 9.53766 9.35546 9.4234 9.35794 9.27935V9.28183L9.48961 7.02161L9.35794 2.3273C9.35297 2.18324 9.2387 2.06899 9.0971 2.06899Z" fill="#0E0E0E"/>
<path d="M10.1777 1.2046C10.133 1.17479 10.0809 1.1574 10.0237 1.1574C9.96907 1.1574 9.9169 1.17479 9.87467 1.20211C9.79766 1.25179 9.74797 1.33872 9.74549 1.43559V1.48774L9.64115 7.01908L9.74549 9.2644V9.27433C9.74797 9.33643 9.77281 9.39604 9.81008 9.44075C9.86225 9.50284 9.93677 9.54258 10.0237 9.54258C10.1007 9.54258 10.1678 9.51029 10.22 9.46062C10.2697 9.41094 10.3019 9.3414 10.3044 9.2644L10.3169 9.04334L10.4237 7.02156L10.3069 1.43559C10.3019 1.3412 10.2523 1.25675 10.1777 1.2046Z" fill="#0E0E0E"/>
<path d="M11.1019 0.6755C11.0572 0.648179 11.005 0.633276 10.9503 0.633276C10.8783 0.633276 10.8137 0.658114 10.7615 0.700338C10.6969 0.754981 10.6522 0.836945 10.6522 0.928844V0.958649L10.5305 7.02151L10.6522 9.23206C10.6547 9.3935 10.7889 9.52762 10.9503 9.52762C11.1118 9.52762 11.246 9.3935 11.2484 9.22957V9.23206L11.3801 7.02151L11.2484 0.92636C11.246 0.822042 11.1863 0.727659 11.1019 0.6755Z" fill="#0E0E0E"/>
<path d="M19.2922 4.14043C18.9221 4.14043 18.5668 4.21494 18.2464 4.34906C18.0303 1.9125 15.9858 0 13.4941 0C12.883 0 12.2893 0.119221 11.7626 0.322889C11.5589 0.402369 11.5043 0.484333 11.5018 0.64081V9.22469C11.5043 9.3911 11.6335 9.52025 11.7949 9.53516H19.2947C20.7877 9.53516 22 8.33798 22 6.84276C22 5.35002 20.7877 4.14043 19.2922 4.14043Z" fill="#0E0E0E"/>
</g>
</svg>
