<svg preserveAspectRatio="xMidYMid meet" width="18" height="18" overflow="visible" style="display: block;" viewBox="0 0 18 18" fill="none" xmlns="http://www.w3.org/2000/svg">
<path id="Icon" d="M9.00011 14.128C6.16238 14.128 3.85408 11.8091 3.85408 8.95819C3.85408 6.55398 5.48481 4.53282 7.70837 3.95847V0.00129993C3.34579 0.639561 0 4.405 0 8.95819C0 13.9579 4.02358 18 9.00011 18C11.0119 18 12.8967 17.3405 14.3788 16.1916L11.6047 13.4048C10.8424 13.8515 9.95284 14.128 9.00011 14.128V14.128ZM14.1459 8.95689C14.1459 9.91449 13.8919 10.808 13.4259 11.5738L16.2002 14.3609C17.3436 12.8504 18 10.978 18 8.95689C18 4.40413 14.6542 0.638261 10.2918 0V3.95717C12.4943 4.53174 14.1459 6.55268 14.1459 8.95689V8.95689Z" fill="var(--fill-0, #0E0E0E)"/>
</svg>
