<svg preserveAspectRatio="xMidYMid meet" width="22" height="10" overflow="visible" style="display: block;" viewBox="0 0 22 10" fill="none" xmlns="http://www.w3.org/2000/svg">
<path id="Vector" fill-rule="evenodd" clip-rule="evenodd" d="M3.80642 0C1.69115 0 0 1.74541 0 3.86997C0 4.8201 0.452222 5.67397 1.05689 6.39421C1.66356 7.11685 2.45876 7.74766 3.23184 8.26315C4.00803 8.78072 4.78101 9.19457 5.35808 9.47851C5.82571 9.7086 6.52143 10 6.52143 10C6.52143 10 7.0454 9.79308 7.6847 9.4785C8.26172 9.19456 9.03463 8.78071 9.81075 8.26314C10.211 7.99622 10.6172 7.69838 11.0001 7.37289C11.383 7.69839 11.7892 7.99623 12.1895 8.26315C12.9657 8.78072 13.7387 9.19457 14.3158 9.47851C14.7834 9.7086 15.4791 10 15.4791 10C15.4791 10 16.0031 9.79308 16.6424 9.4785C17.2194 9.19456 17.9923 8.78071 18.7685 8.26314C19.5415 7.74765 20.3366 7.11683 20.9432 6.3942C21.5478 5.67395 22 4.82008 22 3.86997C22 1.74541 20.3088 0 18.1936 0C17.1277 0 16.1673 0.445426 15.4787 1.15772C14.7904 0.445376 13.83 0 12.7641 0C12.1259 0 11.5262 0.158912 11 0.439203C10.4738 0.158912 9.87414 0 9.23588 0C8.16996 0 7.20957 0.445426 6.521 1.15772C5.83269 0.445376 4.87226 0 3.80642 0ZM10.0776 1.12821C9.81135 1.04227 9.52848 0.996022 9.23588 0.996022C8.28847 0.996022 7.44615 1.47831 6.93633 2.22633L6.52068 2.83619L6.1053 2.22616C5.59608 1.47833 4.75386 0.996022 3.80642 0.996022C2.27093 0.996022 1.00325 2.26963 1.00325 3.86997C1.00325 4.49804 1.30351 5.1323 1.82755 5.75651C2.34959 6.37833 3.05934 6.9483 3.79121 7.43632C4.51997 7.92226 5.25194 8.31465 5.80358 8.58607C6.11204 8.73784 6.36234 8.85092 6.52141 8.92044C6.68047 8.85092 6.93075 8.73785 7.23916 8.58608C7.79075 8.31466 8.52265 7.92227 9.25134 7.43633C9.60202 7.20248 9.94762 6.9498 10.2699 6.68162C10.1817 6.58753 10.0964 6.49171 10.0146 6.39421C9.40992 5.67397 8.9577 4.8201 8.9577 3.86997C8.9577 2.8026 9.38455 1.83093 10.0776 1.12821ZM11.0001 5.99852C10.9255 5.91879 10.8537 5.83809 10.7853 5.75651C10.2612 5.1323 9.96095 4.49804 9.96095 3.86997C9.96095 2.96321 10.3679 2.16135 11 1.63662C11.6321 2.16135 12.039 2.96321 12.039 3.86997C12.039 4.49805 11.7388 5.13232 11.2148 5.75653C11.1463 5.8381 11.0746 5.91879 11.0001 5.99852ZM11.7302 6.68159C11.8184 6.5875 11.9037 6.49168 11.9855 6.3942C12.5901 5.67395 13.0423 4.82008 13.0423 3.86997C13.0423 2.8026 12.6155 1.83094 11.9224 1.12821C12.1887 1.04227 12.4715 0.996022 12.7641 0.996022C13.7116 0.996022 14.5538 1.47833 15.063 2.22616L15.4784 2.83619L15.894 2.22633C16.4038 1.47831 17.2462 0.996022 18.1936 0.996022C19.7291 0.996022 20.9967 2.26963 20.9967 3.86997C20.9967 4.49805 20.6965 5.13232 20.1725 5.75653C19.6505 6.37835 18.9408 6.94831 18.209 7.43633C17.4804 7.92227 16.7485 8.31466 16.1969 8.58608C15.8884 8.73785 15.6382 8.85092 15.4791 8.92044C15.32 8.85092 15.0697 8.73784 14.7613 8.58607C14.2096 8.31465 13.4777 7.92226 12.7489 7.43632C12.3982 7.20246 12.0526 6.94978 11.7302 6.68159Z" fill="var(--fill-0, #0E0E0E)"/>
</svg>
